<svg width="1020" height="435" viewBox="0 0 1020 435" fill="none" xmlns="http://www.w3.org/2000/svg">
<path d="M758.077 174.081L765.641 122.482H771.157L823.745 63.6141H867.256L797.139 141.567H788.064L758.077 174.081ZM717.235 218.712L747.489 11.9149H785.394L755.141 218.712H717.235ZM802.656 218.712L772.403 151.159L802.033 120.766L847.057 218.712H802.656Z" fill="black"/>
<path d="M661.494 218.712L684.273 63.6142H722.178L699.399 218.712H661.494ZM707.141 43.4192C701.505 43.4192 696.849 41.2988 693.171 37.0578C689.552 32.7496 688.069 27.6335 688.722 21.7096C689.374 15.6511 691.925 10.5351 696.374 6.36143C700.823 2.12048 705.865 0 711.501 0C717.136 0 721.733 2.12048 725.293 6.36143C728.852 10.5351 730.335 15.6511 729.742 21.7096C729.148 27.6335 726.627 32.7496 722.178 37.0578C717.789 41.2988 712.776 43.4192 707.141 43.4192Z" fill="black"/>
<path d="M571.495 218.712L594.274 63.6144H631.023L627.019 90.6757H628.442C632.357 81.0494 637.607 73.7792 644.192 68.8651C650.836 63.8836 657.984 61.3929 665.636 61.3929C667.534 61.3929 669.521 61.5276 671.598 61.7968C673.733 61.9988 675.631 62.3354 677.292 62.8066L671.598 101.076C669.937 100.403 667.564 99.8644 664.479 99.4605C661.454 98.9893 658.577 98.7537 655.848 98.7537C650.331 98.7537 645.2 100.134 640.455 102.894C635.709 105.586 631.705 109.356 628.442 114.203C625.239 119.05 623.133 124.637 622.125 130.965L609.401 218.712H571.495Z" fill="black"/>
<path d="M477.292 221.64C468.631 221.64 461.127 219.923 454.78 216.49C448.492 212.99 443.865 207.806 440.899 200.94C437.933 194.074 437.191 185.558 438.674 175.393C439.979 166.777 442.441 159.574 446.06 153.785C449.738 147.928 454.216 143.216 459.496 139.648C464.775 136.08 470.618 133.354 477.025 131.469C483.491 129.584 490.164 128.305 497.045 127.632C504.994 126.69 511.46 125.781 516.443 124.906C521.485 124.031 525.252 122.785 527.743 121.17C530.235 119.487 531.748 116.996 532.281 113.698V113.092C533.171 106.764 532.133 101.85 529.167 98.3495C526.26 94.7817 521.604 92.9978 515.197 92.9978C508.435 92.9978 502.681 94.6807 497.935 98.0466C493.249 101.412 489.897 105.687 487.88 110.87L453.356 107.639C456.441 98.2149 461.097 90.0695 467.326 83.2033C473.614 76.2696 481.177 70.9516 490.016 67.2492C498.855 63.4795 508.761 61.5946 519.735 61.5946C527.328 61.5946 534.417 62.6044 541.001 64.6239C547.645 66.6434 553.37 69.7736 558.175 74.0145C563.039 78.2555 566.539 83.7081 568.674 90.3725C570.869 96.9695 571.314 104.879 570.009 114.102L554.615 218.712H518.668L521.871 197.204H520.803C517.896 202.051 514.337 206.325 510.125 210.028C505.914 213.663 501.079 216.524 495.622 218.611C490.164 220.63 484.054 221.64 477.292 221.64ZM492.507 191.953C498.024 191.953 503.096 190.708 507.723 188.217C512.409 185.659 516.265 182.226 519.29 177.918C522.375 173.61 524.333 168.729 525.163 163.276L527.477 146.817C526.29 147.693 524.57 148.467 522.316 149.14C520.121 149.813 517.718 150.453 515.108 151.058C512.558 151.597 509.977 152.102 507.367 152.573C504.757 152.977 502.414 153.381 500.338 153.785C495.77 154.525 491.677 155.703 488.058 157.319C484.44 158.934 481.504 161.122 479.249 163.882C476.995 166.575 475.601 169.941 475.067 173.98C474.237 179.836 475.453 184.313 478.715 187.409C482.037 190.439 486.635 191.953 492.507 191.953Z" fill="black"/>
<path d="M316.354 11.9149H359.509L388.072 100.975H390.029L444.396 11.9149H487.551L401.597 145.606L390.83 218.712H352.569L363.335 145.606L316.354 11.9149Z" fill="black"/>
<path d="M940.371 435C926.43 435 914.893 431.634 905.757 424.902C896.622 418.103 890.186 408.679 886.449 396.629C882.771 384.512 882.089 370.41 884.402 354.321C886.656 338.434 891.343 324.533 898.461 312.618C905.579 300.703 914.626 291.447 925.6 284.85C936.574 278.186 948.942 274.854 962.705 274.854C976.585 274.854 988.093 278.253 997.229 285.052C1006.36 291.784 1012.8 301.208 1016.54 313.325C1020.27 325.442 1020.99 339.545 1018.67 355.634C1016.36 371.453 1011.61 385.32 1004.44 397.235C997.258 409.15 988.212 418.44 977.297 425.104C966.382 431.701 954.073 435 940.371 435ZM944.108 401.678C950.514 401.678 956.179 399.625 961.103 395.519C966.086 391.345 970.209 385.69 973.471 378.555C976.793 371.352 979.107 363.207 980.412 354.119C981.717 345.166 981.806 337.223 980.678 330.289C979.551 323.288 977.179 317.768 973.56 313.729C970.001 309.69 965.107 307.67 958.878 307.67C952.472 307.67 946.777 309.757 941.794 313.931C936.811 318.037 932.689 323.692 929.426 330.895C926.163 338.098 923.88 346.277 922.575 355.432C921.329 364.317 921.24 372.261 922.308 379.262C923.375 386.195 925.719 391.682 929.337 395.721C932.956 399.692 937.879 401.678 944.108 401.678Z" fill="black"/>
<path d="M822.699 431.971L845.478 276.873H883.384L860.605 431.971H822.699ZM868.346 256.678C862.711 256.678 858.054 254.558 854.376 250.317C850.757 246.008 849.275 240.892 849.927 234.969C850.58 228.91 853.13 223.794 857.579 219.62C862.028 215.379 867.071 213.259 872.706 213.259C878.341 213.259 882.939 215.379 886.498 219.62C890.057 223.794 891.54 228.91 890.947 234.969C890.354 240.892 887.833 246.008 883.384 250.317C878.994 254.558 873.981 256.678 868.346 256.678Z" fill="black"/>
<path d="M726.116 434.495C715.675 434.495 706.688 431.466 699.155 425.407C691.68 419.282 686.342 410.295 683.138 398.447C679.994 386.532 679.698 371.924 682.249 354.624C684.859 336.852 689.545 322.076 696.307 310.296C703.07 298.448 711.078 289.596 720.332 283.74C729.586 277.816 739.225 274.854 749.25 274.854C756.843 274.854 762.983 276.335 767.669 279.297C772.415 282.191 776.063 285.826 778.614 290.202C781.165 294.51 782.944 298.751 783.953 302.925H785.109L796.588 225.174H834.404L804.151 431.971H766.78L770.428 407.131H768.826C766.453 411.439 763.309 415.714 759.394 419.955C755.538 424.128 750.852 427.595 745.335 430.355C739.878 433.115 733.471 434.495 726.116 434.495ZM742.844 400.265C748.895 400.265 754.352 398.38 759.216 394.61C764.08 390.773 768.174 385.421 771.495 378.555C774.817 371.689 777.131 363.644 778.436 354.422C779.8 345.2 779.83 337.189 778.525 330.39C777.22 323.591 774.669 318.34 770.873 314.638C767.135 310.935 762.182 309.084 756.013 309.084C749.784 309.084 744.268 311.003 739.463 314.84C734.717 318.677 730.772 323.995 727.628 330.794C724.544 337.593 722.349 345.469 721.044 354.422C719.739 363.442 719.65 371.419 720.777 378.353C721.904 385.219 724.306 390.605 727.984 394.509C731.662 398.346 736.615 400.265 742.844 400.265Z" fill="black"/>
<path d="M629.933 365.933L643.013 276.873H680.918L658.139 431.971H621.747L625.84 403.799H624.416C620.204 412.887 614.065 420.19 605.997 425.71C597.93 431.23 588.765 433.99 578.502 433.99C569.367 433.99 561.655 431.634 555.367 426.922C549.139 422.21 544.719 415.512 542.109 406.828C539.499 398.144 539.054 387.744 540.775 375.627L555.367 276.873H593.273L579.926 367.953C578.68 377.108 579.807 384.344 583.307 389.662C586.807 394.98 592.146 397.639 599.324 397.639C603.891 397.639 608.311 396.461 612.582 394.105C616.912 391.682 620.649 388.114 623.793 383.402C626.937 378.69 628.984 372.867 629.933 365.933Z" fill="black"/>
<path d="M543.204 276.873L538.488 309.185H456.092L460.897 276.873H543.204ZM484.922 239.715H522.827L501.65 384.311C501.057 388.282 501.146 391.379 501.917 393.6C502.688 395.755 503.964 397.269 505.743 398.144C507.582 399.019 509.777 399.457 512.328 399.457C514.107 399.457 515.917 399.289 517.756 398.952C519.594 398.548 520.988 398.245 521.938 398.043L523.361 430.052C521.226 430.793 518.349 431.601 514.73 432.476C511.171 433.351 506.959 433.889 502.095 434.091C492.841 434.495 485.011 433.115 478.604 429.951C472.198 426.72 467.6 421.772 464.812 415.108C462.024 408.444 461.431 400.063 463.033 389.965L484.922 239.715Z" fill="black"/>
<path d="M416.99 285.254C417.287 276.84 415.121 270.344 410.495 265.766C405.927 261.189 399.016 258.9 389.762 258.9C383.474 258.9 378.017 259.91 373.39 261.929C368.763 263.881 365.055 266.608 362.267 270.108C359.539 273.541 357.848 277.513 357.195 282.023C356.543 285.725 356.751 288.957 357.818 291.717C358.945 294.477 360.695 296.866 363.068 298.886C365.5 300.838 368.377 302.555 371.699 304.036C375.021 305.449 378.551 306.661 382.288 307.671L397.948 312.114C405.601 314.133 412.482 316.826 418.592 320.192C424.761 323.557 429.922 327.697 434.074 332.612C438.286 337.526 441.252 343.315 442.972 349.979C444.693 356.644 444.93 364.284 443.684 372.901C441.786 385.556 437.366 396.529 430.426 405.818C423.486 415.041 414.38 422.21 403.109 427.326C391.838 432.375 378.788 434.899 363.958 434.899C349.247 434.899 336.819 432.341 326.675 427.225C316.532 422.109 309.146 414.536 304.519 404.506C299.952 394.408 298.587 381.921 300.426 367.044H337.709C337.056 373.978 337.946 379.767 340.378 384.412C342.87 388.989 346.577 392.456 351.501 394.812C356.424 397.101 362.208 398.245 368.852 398.245C375.436 398.245 381.279 397.168 386.381 395.014C391.542 392.86 395.724 389.864 398.927 386.027C402.13 382.19 404.088 377.781 404.8 372.8C405.512 368.155 404.889 364.25 402.931 361.086C400.974 357.923 397.83 355.23 393.499 353.008C389.228 350.72 383.919 348.7 377.572 346.95L358.53 341.295C343.819 337.054 332.696 330.424 325.163 321.403C317.629 312.383 314.93 300.232 317.065 284.951C318.964 272.43 323.561 261.491 330.857 252.134C338.213 242.71 347.467 235.406 358.619 230.223C369.831 224.972 382.08 222.347 395.368 222.347C408.893 222.347 420.312 225.006 429.625 230.324C438.938 235.575 445.731 242.912 450.002 252.336C454.273 261.761 455.578 272.733 453.917 285.254H416.99Z" fill="black"/>
<path d="M250.989 361.363L195.094 344.367L212.009 325.171L52.3517 143.991L35.4363 163.186L20.4589 99.7561L76.3543 116.753L59.439 135.948L219.097 317.128L236.012 297.933L250.989 361.363Z" fill="black"/>
<path d="M250.989 99.756L236.012 163.186L219.097 143.991L59.439 325.171L76.3544 344.367L20.459 361.363L35.4364 297.933L52.3518 317.128L212.009 135.948L195.094 116.752L250.989 99.756Z" fill="black"/>
</svg>
