<svg width="17" height="17" viewBox="0 0 17 17" fill="none" xmlns="http://www.w3.org/2000/svg">
<!-- Smaller yellow circle in the center -->
<circle cx="8.5" cy="8.5" r="3.5" fill="#FFD000"/>
<!-- Sun rays (arrows) -->
<path d="M14.7755 2.22444L11.9082 3.05655L12.7496 3.89789L4.4158 12.2317L3.57445 11.3903L2.74235 14.2576L5.60965 13.4255L4.76831 12.5842L13.1021 4.2504L13.9434 5.09175L14.7755 2.22444Z" fill="#FFD000"/>
<path d="M8.5 5.80821e-07L7 2.61319L8.24019 2.61319L8.24019 14.3868L7 14.3868L8.5 17L10 14.3868L8.75981 14.3868L8.75981 2.61319L10 2.61319L8.5 5.80821e-07Z" fill="#FFD000"/>
<path d="M17 8.5L14.3868 7V8.24019L2.61319 8.24019V7L0 8.5L2.61319 10V8.75981L14.3868 8.75981V10L17 8.5Z" fill="#FFD000"/>
<path d="M2.56608 2.06461L3.416 4.94974L4.25734 4.10839L12.6714 12.5225L11.8301 13.3638L14.7152 14.2137L13.8653 11.3286L13.0239 12.1699L4.60986 3.75588L5.4512 2.91454L2.56608 2.06461Z" fill="#FFD000"/>
</svg>
