<svg width="226" height="226" viewBox="0 0 226 226" fill="none" xmlns="http://www.w3.org/2000/svg">
<g clip-path="url(#clip0_33_1250)">
<rect width="226" height="226" fill="white"/>
<rect width="226" height="226" fill="#00D0FF"/>
<line x1="31.7588" y1="241.139" x2="42.1226" y2="164.531" stroke="#EFE9C9" stroke-width="12"/>
<line y1="-6" x2="77.3064" y2="-6" transform="matrix(-0.316615 -0.948554 -0.948554 0.316615 78.0228 238.617)" stroke="#EFE9C9" stroke-width="12"/>
<line x1="108.045" y1="139.243" x2="61.1648" y2="98.2442" stroke="#EFE9C9" stroke-width="10"/>
<line y1="-5" x2="62.279" y2="-5" transform="matrix(0.381764 -0.92426 -0.92426 -0.381764 3.28336 155.562)" stroke="#EFE9C9" stroke-width="10"/>
<rect x="26.5509" y="98.0481" width="38.073" height="73.7664" transform="rotate(-5.37701 26.5509 98.0481)" fill="#EFE9C9"/>
<path d="M32.5715 162.014L24.0289 185.523L31.8748 180.005L35.0243 188.074L38.9821 179.336L46.0197 190.624L49.643 178.332L56.6806 189.62L60.4154 178.514L68.6376 189.69L69.8917 177.622L81.556 187.279L71.6615 158.334L32.5715 162.014Z" fill="#009A0A" stroke="#009A0A"/>
<path d="M101.307 127.783L97.2855 134.902L102.939 137.867L106.961 130.748L115.82 121.553L126.383 106.908L129.589 94.748L129.18 92.2272L127.716 91.1708L126.251 90.1144L122.266 89.4662L112.147 98.8654L102.399 118.552L101.307 127.783Z" fill="#632323" stroke="#632323"/>
<circle cx="45.2387" cy="80.754" r="17.8467" transform="rotate(-5.37701 45.2387 80.754)" fill="#EFE9C9"/>
<line y1="-6" x2="65.4459" y2="-6" transform="matrix(-0.203933 -0.978985 -0.978985 0.203933 196.25 237.121)" stroke="white" stroke-width="12"/>
<line x1="157.393" y1="236.635" x2="168.621" y2="172.159" stroke="white" stroke-width="12"/>
<line y1="-5" x2="60.0862" y2="-5" transform="matrix(0.675693 -0.737183 -0.737183 -0.675693 119.063 151.142)" stroke="#020048" stroke-width="10"/>
<line x1="220.428" y1="161.328" x2="191.515" y2="108.656" stroke="#020048" stroke-width="10"/>
<rect width="36.7324" height="71.1691" transform="matrix(-0.999864 0.0164719 0.0164719 0.999864 196.39 106.242)" fill="white"/>
<circle cx="17.2183" cy="17.2183" r="17.2183" transform="matrix(-0.999864 0.0164719 0.0164719 0.999864 193.565 74.1433)" fill="#EFE9C9"/>
<rect width="29.8451" height="32.1409" transform="matrix(-0.999864 0.0164719 0.0164719 0.999864 190.854 48.9312)" fill="#020048"/>
<path d="M168.865 60.8559C169.097 60.7434 169.57 60.2608 170.052 58.8913C170.338 58.0802 170.488 57.3603 170.867 56.435C171.196 55.6329 171.668 54.5481 171.811 52.6106C171.888 51.5691 172.224 50.8365 172.652 49.5752C172.971 48.6313 173.049 47.8494 173.216 46.4624C173.378 45.1176 173.667 42.5073 174.085 39.6278C174.371 37.6618 174.703 36.7595 174.524 35.8339C174.277 34.5569 173.748 33.9962 173.115 32.9359C172.676 32.2017 172.18 31.6672 171.506 31.1624C170.929 30.7304 169.62 30.9284 168.63 31.0819C168.449 31.1099 168.315 31.2062 168.228 31.3321C167.805 31.9504 167.986 32.9088 167.559 33.4986C167.049 34.2036 166.187 34.871 165.66 35.4628C165.186 35.9936 165.22 37.8742 164.84 39.0743C164.605 39.8182 164.221 41.0805 164.337 44.2267C164.368 45.059 164.87 46.429 165.466 48.6011C166.277 51.558 165.922 53.7081 165.865 55.743C165.838 56.6795 166.132 57.8776 166.674 59.6933C166.929 60.5461 167.394 60.8812 167.604 61.1307C167.713 61.2608 167.915 61.3107 168.082 61.2828C168.248 61.2549 168.395 61.1255 168.526 60.9997C168.656 60.8739 168.764 60.7556 169.143 60.4136" stroke="#FF0000" stroke-linecap="round"/>
<path d="M168.015 59.5186C168.015 59.0455 168.072 57.5639 168.958 54.74C169.511 52.9807 170.192 50.4416 170.404 49.088C170.698 47.2157 171.52 45.4451 171.852 44.0901C172.168 42.7978 171.784 40.6372 171.756 39.1936C171.737 38.1994 172.146 35.6121 171.929 34.1859C171.831 33.5384 171.1 33.1634 170.427 32.8316C170.265 32.7519 170.094 32.7507 169.957 32.8016C169.361 33.0236 169.127 33.8488 168.679 34.3765C168.083 35.0789 167.491 35.9241 167.041 36.5433C166.576 37.1824 166.523 38.0563 166.23 38.7056C165.889 39.4626 165.916 40.5055 165.89 45.0001C165.878 47.2221 166.007 49.0644 166.21 49.9818C166.416 50.9142 166.537 52.3638 166.638 53.4462C166.722 54.343 166.905 55.3024 167.064 56.3786C167.223 57.4599 167.384 58.0001 167.605 58.1884C167.708 58.2763 167.892 58.1774 168.016 58.0502C168.838 57.2035 169.2 55.637 169.613 54.9829C169.991 54.383 170.361 53.7774 170.518 53.0463C170.785 51.8049 170.728 49.4993 171.051 48.5058C171.508 47.0967 171.884 43.963 171.923 42.1262C171.952 40.7768 172.271 39.9886 172.456 39.0361C172.793 37.3061 172.724 36.4689 172.696 36.0495C172.643 35.2618 171.401 34.9751 170.755 34.4999C170.619 34.4004 170.495 34.3035 170.327 34.4979C169.334 35.6457 168.978 37.3051 168.342 38.3794C167.579 39.6665 167.204 40.5277 167.063 41.3185C166.909 42.1808 166.819 43.274 166.796 48.4172C166.786 50.4745 167.607 51.9105 168.291 53.18C168.431 53.44 168.565 53.6241 168.59 53.4991C168.699 52.9354 168.439 51.2892 168.487 49.0012C168.532 46.8748 168.83 44.4968 168.812 42.3079C168.799 40.5857 168.98 39.5873 169.177 38.7636C169.514 37.3516 169.512 36.7133 169.684 36.3861C170.108 35.581 170.49 40.6639 170.626 43.0552C170.665 43.7393 170.784 44.4113 170.761 45.0353C170.745 45.4834 170.386 45.9539 169.99 46.3475C169.815 46.4374 169.691 46.3043 169.624 46.0471C169.557 45.79 169.551 45.4127 169.544 45.024" stroke="#FF0000" stroke-linecap="round"/>
<path d="M119.063 151.142L127.23 159.043L132.874 153.21L124.707 145.308L119.063 151.142Z" fill="#EFE9C9" stroke="#EFE9C9" stroke-width="0.2"/>
<path d="M225.297 159.234L214.96 164.6L211.024 157.272L221.361 151.905L225.297 159.234Z" fill="#EFE9C9" stroke="#EFE9C9" stroke-width="0.2"/>
<rect width="9.1831" height="16.0704" transform="matrix(-0.978131 0.207987 0.207987 0.978131 128.169 141.178)" fill="#8A0D0D"/>
<rect width="18.3662" height="4.59155" transform="matrix(-0.978131 0.207987 0.207987 0.978131 131.705 135.732)" fill="#8A0D0D"/>
<rect width="9.18425" height="53.886" transform="matrix(-0.976923 0.213594 0.203683 0.979037 116.228 83.8787)" fill="#E2E2E2"/>
<path d="M107.256 85.8406L116.228 83.8789L108.083 67.2743L107.256 85.8406Z" fill="#E2E2E2"/>
<path d="M190.439 116.673L196.39 106.242L197.298 161.333L187.965 152.303L187.776 140.825L187.624 131.644L190.439 116.673Z" fill="#020048" stroke="#020048" stroke-width="0.2"/>
<path d="M165.954 117.076L159.663 106.847L160.571 161.938L169.601 152.605L169.412 141.128L169.261 131.946L165.954 117.076Z" fill="#020048" stroke="#020048" stroke-width="0.2"/>
<path d="M188.797 202.803L202.532 200.28L209.985 234.599L196.25 237.121L188.797 202.803Z" fill="black" stroke="#020048" stroke-width="0.2"/>
<path d="M149.405 235.758L163.246 237.608L169.055 204.114L155.214 202.265L149.405 235.758Z" fill="black" stroke="#020048" stroke-width="0.2"/>
<path d="M167.694 51.6744C167.694 51.6727 167.694 51.6711 167.691 50.0023C167.688 48.3335 167.682 44.9977 167.671 43.1842C167.66 41.3706 167.644 41.1804 167.622 41.1935C166.651 41.765 167.872 45.4149 167.903 47.0478C167.917 47.8026 166.379 45.697 165.504 45.0966C164.913 44.6908 164.969 43.8497 164.935 43.4647C164.869 42.7277 165.674 40.9385 165.927 39.4965C166.057 38.7554 166.323 37.8333 166.674 37.0343C167.039 36.2022 167.565 35.6912 167.908 35.4773C168.081 35.3697 168.28 35.3168 168.384 35.5544C169.016 36.9909 168.138 38.0388 167.371 39.2295C166.501 40.5806 165.572 41.4027 165.491 41.6336C165.313 42.1396 166.563 40.3944 167.372 39.7939C167.716 39.5387 168.037 39.3428 168.287 39.28C168.859 39.1364 168.694 40.4941 168.78 41.1923C168.872 41.9325 169.128 42.6453 169.314 42.8823C169.491 43.1081 169.956 41.4251 170.421 41.3013C174.199 40.2965 170.561 48.4765 170.509 48.8955C170.403 49.7423 170.265 50.7335 170.204 51.6686C170.188 51.9117 170.186 52.1758 170.161 52.1815C169.061 52.4303 169.932 48.8081 169.835 46.0989C169.762 44.0679 169.694 43.4853 169.536 43.2866C169.081 42.717 168.188 44.4846 167.591 45.1683C167.083 45.7498 166.274 46.0234 165.839 46.3489C165.349 46.7156 167.35 47.6274 168.2 48.5541C168.779 49.1868 168.756 50.4779 168.557 51.6194C168.24 53.4395 167.967 54.2859 167.871 55.19C167.833 56.097 167.891 56.8336 168.033 57.1779C168.101 57.3445 168.162 57.4947 168.37 57.65" stroke="#FF0000" stroke-width="2" stroke-linecap="round"/>
<path d="M168.37 57.6498C168.37 57.1542 168.015 55.0034 167.615 53.4192C167.405 52.5869 167.469 51.911 167.499 51.6628C167.631 50.587 170.066 53.0844 170.572 53.5854C171.201 54.2081 170.35 55.5374 170.154 56.4489C170.006 57.1368 169.957 57.8969 169.702 58.6759C169.481 59.3509 168.988 59.7318 168.638 59.9568C168.484 60.0564 168.299 59.9739 168.171 59.8713C167.622 59.4326 167.589 58.5571 167.508 57.7067C167.437 56.9582 166.987 56.2384 166.833 55.5162C166.789 55.3082 166.789 55.0495 167.089 54.781C168.558 53.4625 169.69 53.4299 170.362 52.9684C171.117 52.4505 171.084 51.571 171.295 50.7049C171.596 49.466 171.893 48.8712 172.192 47.9602C172.662 46.5219 172.673 45.7829 172.673 42.5198C172.673 41.1842 171.706 40.0659 171.092 39.0001C170.986 38.8153 170.892 38.6799 170.803 38.6889C169.511 38.8206 170.633 42.224 171.035 43.1036C171.149 43.307 171.25 43.4582 171.351 43.6215C171.453 43.7848 171.552 43.9555 171.887 44.4811" stroke="#FF0000" stroke-width="2" stroke-linecap="round"/>
<path d="M173.362 40.6892C173.362 40.0037 173.563 38.2482 173.822 37.4708C173.931 37.1468 173.791 36.9156 173.531 36.6124C172.898 35.8761 171.889 35.5359 171.054 35.5913C170.727 35.6129 170.613 35.7567 170.617 36.0175C170.627 36.6996 170.952 37.2751 171.134 37.5766C171.314 37.8763 171.891 38.0097 172.282 38.1462C172.872 38.3521 170.013 37.2683 168.783 36.759C168.378 36.5909 167.735 36.5339 167.107 36.4416C166.879 36.4083 166.905 36.1682 166.974 36.0214C167.112 35.7304 167.409 35.5195 167.488 35.3565C167.737 34.8452 166.582 36.0972 166.515 36.3891C166.49 36.4981 166.72 36.5184 166.951 36.4202C168.096 35.9341 168.563 35.0815 169.113 34.5253C169.377 34.259 170.125 34.2109 171.036 34.2423C171.874 34.5909 172.387 35.0958 172.712 35.33C172.871 35.4442 173.018 35.549 173.284 35.7464" stroke="#FF0000" stroke-width="2" stroke-linecap="round"/>
<path d="M173.926 35.701C173.862 35.4423 173.461 34.5402 172.844 33.6148C172.372 32.906 171.257 32.1355 170.411 31.8185C169.762 31.5754 169.292 32.6107 168.903 33.2012C168.711 33.4929 168.55 33.8536 168.439 34.0501C168.679 33.5417 168.913 32.9023 169.052 32.3939C169.087 32.392 169.117 32.5565 169.149 32.8522" stroke="#FF0000" stroke-width="2" stroke-linecap="round"/>
<path d="M169.47 34.1206C169.376 34.3477 168.909 34.5772 168.627 34.6244C168.514 34.6434 168.481 34.4277 168.56 34.2519C168.64 34.0761 168.837 33.8895 169.01 33.7421C169.183 33.5948 169.326 33.4923 169.794 33.0479" stroke="#FF0000" stroke-width="2" stroke-linecap="round"/>
</g>
<defs>
<clipPath id="clip0_33_1250">
<rect width="226" height="226" fill="white"/>
</clipPath>
</defs>
</svg>
