<svg width="144" height="144" viewBox="0 0 144 144" fill="none" xmlns="http://www.w3.org/2000/svg">
<rect width="144" height="144" fill="#C8C8C8"/>
<rect width="144" height="144" fill="#13021F"/>
<circle cx="44.5" cy="42.5" r="28.5" fill="#FFFF00"/>
<path d="M44 -1.5C68.0353 -1.5 87.5 17.5387 87.5 41C87.5 64.4613 68.0353 83.5 44 83.5C19.9647 83.5 0.5 64.4613 0.5 41C0.5 17.5387 19.9647 -1.5 44 -1.5Z" stroke="#2E2D2D"/>
<path d="M43.5 -10.5C74.4407 -10.5 99.5 13.9131 99.5 44C99.5 74.0869 74.4407 98.5 43.5 98.5C12.5593 98.5 -12.5 74.0869 -12.5 44C-12.5 13.9131 12.5593 -10.5 43.5 -10.5Z" stroke="#2E2D2D"/>
<path d="M41 -25.5C81.6126 -25.5 114.5 6.08323 114.5 45C114.5 83.9168 81.6126 115.5 41 115.5C0.387367 115.5 -32.5 83.9168 -32.5 45C-32.5 6.08323 0.387367 -25.5 41 -25.5Z" stroke="#2E2D2D"/>
<path d="M42 -38.5C92.0032 -38.5 132.5 0.248313 132.5 48C132.5 95.7517 92.0032 134.5 42 134.5C-8.00319 134.5 -48.5 95.7517 -48.5 48C-48.5 0.248313 -8.00319 -38.5 42 -38.5Z" stroke="#2E2D2D"/>
<path d="M45 -63.5C111.029 -63.5 164.5 -13.326 164.5 48.5C164.5 110.326 111.029 160.5 45 160.5C-21.0289 160.5 -74.5 110.326 -74.5 48.5C-74.5 -13.326 -21.0289 -63.5 45 -63.5Z" stroke="#2E2D2D"/>
<circle cx="70.5" cy="74.5" r="2.5" fill="#6F6F6F"/>
<circle cx="35" cy="98" r="5" fill="#B86200"/>
<circle cx="96.5" cy="91.5" r="5.5" fill="#006FFF"/>
<circle cx="106.5" cy="108.5" r="3.5" fill="#B70000"/>
<circle cx="128" cy="129" r="12" fill="#E9B0B0"/>
<circle cx="86" cy="92" r="2" fill="#D9D9D9"/>
</svg>
